<svg xmlns="http://www.w3.org/2000/svg" width="600" height="600" viewBox="0 0 600 600" version="1.1"><path d="M 356.801 43.012 C 346.845 51.219, 348.303 54.511, 372.849 79.250 L 393.436 99.999 373.380 120.250 C 361.862 131.879, 352.775 141.891, 352.033 143.768 C 348.116 153.685, 361.464 164.054, 370.785 158.334 C 374.697 155.934, 420 110.758, 420 109.258 C 420 108.566, 420.378 108, 420.840 108 C 421.302 108, 422.274 106.200, 423 104 C 425.522 96.359, 424.387 94.792, 395.535 66.072 C 365.709 36.383, 365.206 36.084, 356.801 43.012 M 446.462 135.064 C 437.099 137.787, 434.139 150.073, 441.271 156.610 L 444.971 160 491.520 160 C 542.812 160, 541.266 160.183, 544.476 153.747 C 548.262 146.158, 544.870 137.476, 537.225 135.185 C 532.492 133.768, 451.294 133.659, 446.462 135.064 M 315.500 220.382 C 317.150 221.782, 319.061 222.944, 319.748 222.964 C 327.225 223.180, 368.384 262.090, 378.221 278.242 C 380.437 281.880, 383.217 283.076, 384.528 280.955 C 386.799 277.280, 358.358 246.487, 341.235 234.081 C 328.187 224.628, 307.577 213.657, 315.500 220.382 M 167.146 224.728 C 161.541 235.200, 155.898 297.859, 158.865 316.680 C 160.999 330.219, 160.813 330.130, 169.223 321.667 C 176.736 314.106, 183.929 308.830, 194.755 302.937 C 202.776 298.571, 202.286 297.613, 191.717 297 C 178.698 296.245, 177.998 292.814, 189.379 285.534 L 194.650 282.162 186.933 266.331 C 182.688 257.624, 178.923 249.375, 178.566 248 C 178.208 246.625, 181.005 251.575, 184.781 259 C 192.160 273.513, 196.583 281.006, 197.763 280.991 C 200.563 280.956, 220.553 272.959, 220.791 271.779 C 221.100 270.245, 194.661 242.806, 186.910 236.617 C 174.283 226.535, 168.152 222.847, 167.146 224.728 M 246.500 256.417 C 233.657 259.562, 220.729 270.896, 228.250 272.417 C 229.488 272.667, 233.200 273.110, 236.500 273.402 C 262.343 275.686, 290.043 286.917, 315.566 305.459 C 316.943 306.459, 337.854 297.329, 337.952 295.685 C 338.365 288.715, 283.334 258.692, 266.209 256.546 C 256.493 255.328, 251.091 255.292, 246.500 256.417 M 398.500 282.100 C 378.143 284.107, 319 305.139, 319 310.371 C 319 311.156, 320.575 314.139, 322.500 317 C 326.505 322.952, 326.778 324.513, 324.066 325.965 C 319.730 328.285, 301.319 325.659, 291 321.248 C 288.525 320.190, 283.696 318.780, 280.269 318.116 C 276.842 317.451, 271.442 315.753, 268.269 314.342 C 265.096 312.932, 260.700 311.179, 258.500 310.447 C 256.300 309.715, 250.675 307.715, 246 306.003 C 220.066 296.503, 217.227 296.480, 199.407 305.621 C 180.217 315.464, 170.710 323.037, 161.269 336 C 159.066 339.025, 154.456 344.166, 151.024 347.423 L 144.785 353.347 145.222 358.923 C 145.462 361.991, 146.881 367.650, 148.375 371.500 C 157.862 395.952, 177.649 412.607, 203 417.480 C 213.748 419.547, 230.186 425.882, 233 429.043 C 235.799 432.187, 249.848 434.101, 254.316 431.947 C 258.458 429.950, 251.383 435.328, 241.035 442.041 C 234.799 446.087, 231.065 449.154, 231.040 450.250 C 230.976 453.053, 232.452 452.416, 243.783 444.750 C 249.678 440.762, 254.950 437.329, 255.500 437.120 C 256.050 436.910, 257.288 436.053, 258.250 435.215 C 260.406 433.336, 260.423 433.742, 258.395 438.598 C 256.232 443.774, 256.815 461.018, 259.311 465.720 C 261.862 470.526, 264.156 471.309, 274.426 470.880 C 291.680 470.158, 310.852 470.767, 318.182 472.269 C 333.415 475.391, 336.490 473.529, 332.828 463.400 C 331.799 460.556, 331.983 459.429, 334.328 454.204 C 339.570 442.524, 338.708 441.139, 324 437.606 C 289.549 429.332, 270.398 426.870, 262.183 429.659 C 257.118 431.379, 255.888 430.959, 259.348 428.692 C 264.207 425.508, 278.640 426.484, 302.574 431.614 C 311.414 433.508, 319.964 435.006, 321.574 434.941 C 323.183 434.876, 326.750 435.129, 329.500 435.503 C 334.920 436.241, 349.586 431.807, 353.635 428.207 C 354.691 427.268, 357.234 425.639, 359.286 424.588 C 364.073 422.135, 375 412.271, 375 410.403 C 375 409.616, 374.438 408.065, 373.750 406.956 C 372.493 404.927, 372.972 404.166, 376.500 402.584 C 377.050 402.338, 376.370 401.093, 374.989 399.818 C 373.608 398.543, 371.211 395.837, 369.662 393.805 L 366.846 390.109 369.902 387.305 C 381.580 376.589, 397.564 336.361, 404.883 299.263 C 408.793 279.447, 409.380 281.027, 398.500 282.100 M 353.340 318.832 C 345.660 324.913, 329.999 341.189, 330.714 342.346 C 331.081 342.940, 334.343 340.155, 338.206 335.949 C 341.969 331.852, 348.299 325.480, 352.274 321.789 C 360.282 314.351, 360.795 312.929, 353.340 318.832 M 176.501 333.998 C 175.774 335.175, 175.700 335.134, 179.334 335.561 C 187.325 336.498, 195.183 340.135, 194.562 342.609 C 194.223 343.959, 194.406 345, 194.981 345 C 196.778 345, 196.068 347.749, 194.142 348.253 C 192.273 348.742, 190.772 353.244, 191.686 355.623 C 192.447 357.607, 194.758 356.111, 195.465 353.178 C 198.265 341.565, 198.150 341.671, 203.785 345.500 C 207.761 348.202, 210.239 348.750, 209.434 346.750 C 207.112 340.979, 178.931 330.067, 176.501 333.998 M 270.761 358.572 C 270.416 358.918, 268.595 359.200, 266.714 359.200 C 264.833 359.200, 262.666 359.598, 261.897 360.085 C 260.992 360.658, 262.525 360.975, 266.250 360.985 C 270.688 360.997, 272 361.342, 272 362.500 C 272 363.325, 272.450 364, 273 364 C 273.550 364, 274 364.675, 274 365.500 C 274 366.325, 273.381 367, 272.625 367 C 271.188 367, 270 371.164, 270 376.198 C 270 382.830, 273.397 379.010, 275.072 370.494 C 277.065 360.362, 284.773 359.486, 304.385 367.165 C 310.006 369.365, 312.626 369.111, 308.975 366.719 C 303.892 363.389, 272.613 356.720, 270.761 358.572 M 60.067 382.159 C 57.589 384.819, 55.568 390.925, 53.546 401.860 C 51.556 412.625, 51.514 412.195, 54.876 415.713 C 58.716 419.731, 61.666 428.005, 62.172 436.177 C 62.519 441.788, 62.383 442.564, 61.314 441.038 C 60.571 439.978, 60.123 436.789, 60.234 433.362 C 60.837 414.818, 41.563 408.290, 31.136 423.507 C 28.458 427.415, 26 435.024, 25.999 439.409 C 25.999 441.109, 25.014 444.975, 23.809 448 C 22.077 452.349, 21.607 455.644, 21.560 463.749 C 21.508 472.565, 21.270 473.999, 19.857 473.999 C 15.566 474.001, 14.958 485.785, 18.848 493.573 C 20.516 496.913, 23.216 502.988, 24.848 507.073 C 32.106 525.235, 34.038 527.937, 43.352 532.941 C 60.466 542.138, 85.217 541.265, 94.371 531.144 C 97.271 527.937, 95.925 526.657, 86.364 523.529 C 81.489 521.934, 76.150 520.089, 74.500 519.429 C 72.850 518.770, 68.800 517.213, 65.500 515.970 C 62.200 514.727, 57.612 512.875, 55.305 511.855 C 52.998 510.835, 50.869 510, 50.574 510 C 42.223 510, 27.201 497.440, 28.729 491.734 C 29.586 488.530, 29.575 486.984, 28.681 485.376 C 28.031 484.208, 26.643 481.733, 25.595 479.876 C 24.376 477.714, 24.196 476.887, 25.095 477.575 C 36.026 485.941, 53.814 479.263, 55.910 466.007 C 56.346 463.245, 57.421 460.193, 58.297 459.224 C 59.173 458.256, 60.837 455.447, 61.994 452.982 C 64.023 448.661, 64.074 448.626, 63.429 452 C 62.689 455.868, 60.530 460.554, 59.074 461.454 C 58.557 461.773, 57.600 464.609, 56.947 467.755 C 55.064 476.825, 42.566 485.940, 36.853 482.409 C 34.230 480.788, 30.375 488.375, 30.771 494.380 C 31.096 499.304, 38.649 503.573, 65.500 514.006 C 86.750 522.263, 101.564 526.858, 122 531.529 C 128.325 532.975, 138.900 535.677, 145.500 537.534 C 152.100 539.390, 162.225 542.075, 168 543.500 C 173.775 544.925, 181.089 546.971, 184.254 548.046 C 195.849 551.984, 202.175 544.108, 194.406 535.406 C 189.739 530.177, 188.152 525.519, 189.226 520.201 C 190.308 514.840, 190.337 513.034, 189.480 504 C 188.991 498.849, 189.293 496.275, 190.932 491.593 C 192.069 488.345, 193.004 484.520, 193.010 483.093 C 193.054 471.283, 206.790 461.632, 220.591 463.714 C 224.278 464.270, 224.652 463.554, 228.526 448.500 C 233.840 427.855, 234.566 428.618, 200 418.479 C 193.125 416.463, 184.125 413.747, 180 412.444 C 175.875 411.141, 163.725 407.847, 153 405.123 C 130.530 399.418, 121.218 396.743, 104.500 391.192 C 69.630 379.614, 63.583 378.384, 60.067 382.159 M 234.711 434.691 C 232.574 438.291, 232.884 444.133, 235.147 442.933 C 243.020 438.757, 245.463 436.715, 243.465 435.981 C 239.555 434.545, 235.180 433.900, 234.711 434.691 M 214.512 444.095 C 208.798 447.718, 208.941 447.659, 189.500 454.483 C 167.696 462.136, 153.963 467.296, 154.355 467.688 C 154.699 468.033, 184.691 457.667, 201.541 451.380 C 209.792 448.302, 222.964 441.087, 220.446 441.026 C 219.866 441.012, 217.196 442.393, 214.512 444.095 M 118.620 444.193 C 117.707 444.704, 116.132 444.859, 115.121 444.538 C 114.070 444.205, 112.741 444.607, 112.019 445.477 C 111.324 446.315, 109.740 447, 108.500 447 C 107.260 447, 105.685 447.675, 105 448.500 C 104.315 449.325, 103.124 450, 102.353 450 C 101.582 450, 100.523 451.125, 100 452.500 C 98.917 455.348, 97.240 455.711, 95.591 453.455 C 94.681 452.211, 94.494 452.605, 94.629 455.485 C 94.722 457.451, 94.182 459.675, 93.431 460.426 C 92.679 461.178, 92.072 463.077, 92.081 464.646 C 92.091 466.216, 91.876 470.076, 91.605 473.225 C 91.333 476.374, 91.536 479.213, 92.056 479.534 C 92.575 479.855, 93 481.161, 93 482.437 C 93 483.712, 93.675 485.315, 94.500 486 C 95.325 486.685, 96 488.059, 96 489.055 C 96 490.051, 96.926 491.159, 98.057 491.518 C 99.189 491.877, 100.545 493.303, 101.071 494.687 C 101.738 496.441, 102.520 497.014, 103.654 496.579 C 104.679 496.186, 105.826 496.735, 106.757 498.064 C 107.690 499.396, 108.934 499.989, 110.135 499.675 C 111.180 499.402, 112.590 499.720, 113.268 500.382 C 114.641 501.723, 122.799 501.933, 124.759 500.677 C 125.451 500.234, 126.850 500.135, 127.868 500.458 C 128.931 500.795, 130.255 500.398, 130.981 499.523 C 131.676 498.685, 133.104 498, 134.154 498 C 135.204 498, 136.328 497.308, 136.653 496.463 C 136.977 495.618, 138.574 494.237, 140.202 493.395 C 142.073 492.428, 142.959 491.334, 142.609 490.423 C 142.300 489.617, 142.925 488.439, 144.028 487.750 C 145.113 487.073, 146 485.557, 146 484.382 C 146 483.207, 146.685 481.676, 147.523 480.981 C 148.380 480.270, 148.794 478.927, 148.471 477.909 C 147.875 476.031, 150.448 470.038, 152.390 468.781 C 153 468.386, 152.150 468.161, 150.500 468.281 C 147.974 468.465, 147.545 468.168, 147.787 466.403 C 147.945 465.250, 147.382 463.732, 146.537 463.031 C 145.692 462.329, 145 460.965, 145 460 C 145 459.035, 144.325 457.685, 143.500 457 C 142.675 456.315, 142 455.112, 142 454.326 C 142 453.539, 140.650 452.425, 139 451.850 C 137.350 451.275, 136 450.182, 136 449.421 C 136 448.661, 134.762 447.742, 133.250 447.381 C 131.738 447.020, 129.943 446.286, 129.263 445.750 C 128.582 445.215, 127.401 445.016, 126.637 445.309 C 125.874 445.602, 124.131 445.262, 122.764 444.553 C 121.129 443.704, 119.713 443.581, 118.620 444.193 M 113.479 455.315 C 102.894 461.523, 98.803 470.497, 102.511 479.371 C 104.002 482.941, 108.371 488, 109.962 488 C 110.441 488, 110.985 488.454, 111.170 489.010 C 111.494 489.983, 113.950 490.783, 118.811 491.498 C 125.050 492.415, 137 484.898, 137 480.056 C 137 479.109, 137.303 478.030, 137.674 477.659 C 146.431 468.902, 124.635 448.773, 113.479 455.315 M 431.885 460.931 C 431.822 461.244, 431.838 462.221, 431.923 463.102 C 432.045 464.380, 430.698 464.819, 425.248 465.276 C 412.716 466.327, 398.863 473.854, 388.561 485.210 C 380.221 494.403, 379.930 495.378, 384.322 499.401 C 388.627 503.344, 388.544 502.964, 386.034 507.217 C 382.733 512.812, 382.943 516.970, 386.654 519.512 C 396.340 526.144, 417.679 529.673, 433.500 527.258 C 473.608 521.138, 492.989 544.189, 485.621 589.250 L 484.354 597 504.618 597 C 517.049 597, 525.121 596.613, 525.500 596 C 525.840 595.450, 528.229 594.986, 530.809 594.968 C 538.813 594.914, 538.737 595.130, 538.405 573.500 C 538.199 560.036, 537.658 552.897, 536.550 549 C 535.689 545.975, 534.566 541.250, 534.053 538.500 C 532.248 528.814, 522.864 505, 520.852 505 C 520.383 505, 520 503.695, 520 502.101 C 520 499.290, 515.436 491.642, 509.991 485.328 C 498.600 472.121, 469.865 460.298, 452.500 461.674 C 449.200 461.935, 443.238 461.747, 439.250 461.255 C 435.262 460.764, 431.948 460.618, 431.885 460.931 M 206.383 467.530 C 200.138 470.269, 195.255 477.564, 195.076 484.421 C 195.034 486.028, 194.326 488.087, 193.502 488.998 C 190.809 491.974, 189.928 499.862, 191.604 506 C 192.913 510.798, 192.924 512.201, 191.691 516.990 C 189.588 525.156, 191.984 531.083, 199.983 537.500 C 203.283 540.147, 203.504 540.585, 201.862 541.218 C 198.009 542.703, 199.463 547.703, 204.715 551.035 C 213.830 556.815, 220.842 556.519, 226.254 550.127 C 227.489 548.668, 230.415 545.939, 232.757 544.064 C 263.113 519.749, 240.033 452.772, 206.383 467.530 M 300.736 472.812 C 298.466 473.250, 298.420 473.001, 302.680 483.462 C 307.644 495.654, 306.787 495.056, 315.231 492.213 C 321.312 490.165, 323.764 489.851, 330.234 490.287 C 339.149 490.888, 339.102 491.148, 331.840 481.296 C 328.984 477.421, 327.174 475.937, 324.752 475.486 C 317.980 474.226, 302.402 472.491, 300.736 472.812 M 245.153 485.905 C 244.184 486.504, 244.366 487.853, 245.962 491.904 C 254.483 513.521, 245.141 540.735, 224.595 554.146 C 218.202 558.318, 207 559.902, 207 556.633 C 207 554.497, 199.011 549.589, 197.688 550.912 C 197.090 551.510, 195.367 552, 193.859 552 C 185.824 552, 191.026 560.205, 212.462 581.341 C 229.322 597.965, 227.109 597, 248.369 597 C 275.273 597, 279.726 593.698, 291.179 565.256 C 296.765 551.383, 295.753 536.660, 288.112 520.640 C 284.016 512.052, 280.330 508.575, 261 495.066 C 245.839 484.469, 246.685 484.959, 245.153 485.905 M 157.505 547.250 C 159.303 556.058, 164.419 571.816, 169.272 583.500 L 174.673 596.500 184.875 596.785 L 195.077 597.071 193.152 593.285 C 190.144 587.369, 175 551.434, 175 550.212 C 175 548.655, 173.850 548.108, 165.999 545.932 C 156.779 543.378, 156.716 543.387, 157.505 547.250 M 154.378 555.765 C 148.646 559.519, 147.080 581.500, 152.545 581.500 C 154.241 581.500, 154.522 580.733, 154.664 575.720 C 154.766 572.140, 155.600 568.461, 156.856 566.051 C 159.697 560.602, 157.966 553.416, 154.378 555.765 M 159.892 589.346 C 158.852 590.463, 158 591.930, 158 592.607 C 158 593.283, 157.727 594.548, 157.393 595.418 C 156.875 596.769, 157.823 597, 163.893 597 C 171.606 597, 171.698 596.914, 169.536 591.741 C 167.685 587.310, 162.897 586.121, 159.892 589.346" stroke="none" fill="#ffd620" fill-rule="evenodd"/><path d="M 74 3.997 C 73.175 4.532, 70.614 4.976, 68.309 4.985 C 66.004 4.993, 63.840 5.450, 63.500 6 C 63.160 6.550, 61.897 7, 60.694 7 C 44.715 7, 7 44.715, 7 60.694 C 7 61.897, 6.550 63.160, 6 63.500 C 5.450 63.840, 5 65.921, 5 68.125 C 5 70.328, 4.575 72.925, 4.056 73.895 C 2.616 76.587, 2.441 524.088, 3.880 526.776 C 4.496 527.927, 5 530.672, 5 532.875 C 5 535.079, 5.450 537.160, 6 537.500 C 6.550 537.840, 7 538.915, 7 539.889 C 7 555.179, 44.821 593, 60.111 593 C 61.085 593, 62.160 593.450, 62.500 594 C 62.840 594.550, 64.914 595, 67.109 595 C 69.304 595, 72.488 595.718, 74.186 596.596 C 76.925 598.013, 81.719 598.117, 116.869 597.527 C 157.421 596.847, 157.947 596.788, 157.985 592.939 C 158.050 586.271, 167.220 585.942, 169.796 592.514 C 171.383 596.560, 172.836 598.219, 174.106 597.435 C 174.492 597.196, 171.948 589.913, 168.453 581.250 C 162.449 566.367, 156.185 545.482, 157.370 544.297 C 158.793 542.873, 175 548.310, 175 550.211 C 175 551.790, 192.770 593.304, 194.400 595.533 C 195.874 597.548, 230 598.887, 230 596.930 C 230 596.418, 229.427 596, 228.726 596 C 228.025 596, 220.920 589.588, 212.938 581.750 C 191.045 560.256, 185.750 552, 193.859 552 C 195.367 552, 197.090 551.510, 197.688 550.912 C 199.011 549.589, 207 554.497, 207 556.633 C 207 559.902, 218.202 558.318, 224.595 554.146 C 245.084 540.772, 254.481 513.515, 246.011 492.028 C 242.452 482.999, 244.438 483.379, 260.694 494.833 C 285.260 512.143, 288.289 515.900, 293.140 535.080 C 298.465 556.139, 285.472 589.361, 269.676 595.073 C 267.654 595.804, 266 596.761, 266 597.201 C 266 598.638, 482.603 598.190, 483.754 596.750 C 487.019 592.667, 487.501 564.016, 484.475 554 C 477.327 530.343, 462.896 522.772, 433.500 527.258 C 417.679 529.673, 396.340 526.144, 386.654 519.512 C 382.943 516.970, 382.733 512.812, 386.034 507.217 C 388.544 502.964, 388.627 503.344, 384.322 499.401 C 379.930 495.378, 380.221 494.403, 388.561 485.210 C 398.863 473.854, 412.716 466.327, 425.248 465.276 C 431.462 464.755, 432.050 464.515, 431.788 462.602 C 431.590 461.157, 431.969 460.613, 433 460.861 C 433.825 461.059, 440.843 461.367, 448.597 461.545 C 471.675 462.075, 485.975 466.531, 501.570 478.052 C 510.803 484.872, 520 496.874, 520 502.101 C 520 503.695, 520.383 505, 520.852 505 C 522.864 505, 532.248 528.814, 534.053 538.500 C 534.566 541.250, 535.689 545.975, 536.550 549 C 537.658 552.895, 538.199 560.030, 538.404 573.449 C 538.749 595.929, 537.783 594.888, 551.825 587.915 C 570.022 578.878, 593 552.077, 593 539.889 C 593 538.915, 593.450 537.840, 594 537.500 C 594.550 537.160, 595 535.079, 595 532.875 C 595 530.672, 595.513 527.911, 596.139 526.740 C 597.587 524.034, 597.386 76.589, 595.935 73.879 C 595.421 72.918, 595 70.328, 595 68.125 C 595 65.921, 594.550 63.840, 594 63.500 C 593.450 63.160, 593 61.897, 593 60.694 C 593 44.802, 555.297 7, 539.447 7 C 538.321 7, 536.973 6.594, 536.450 6.097 C 535.928 5.600, 533.250 4.864, 530.500 4.462 C 522.641 3.311, 75.761 2.856, 74 3.997 M 356.801 43.012 C 346.845 51.219, 348.303 54.511, 372.849 79.250 L 393.436 99.999 373.380 120.250 C 361.862 131.879, 352.775 141.891, 352.033 143.768 C 348.116 153.685, 361.464 164.054, 370.785 158.334 C 374.697 155.934, 420 110.758, 420 109.258 C 420 108.566, 420.378 108, 420.840 108 C 421.302 108, 422.274 106.200, 423 104 C 425.522 96.359, 424.387 94.792, 395.535 66.072 C 365.709 36.383, 365.206 36.084, 356.801 43.012 M 446.462 135.064 C 437.099 137.787, 434.139 150.073, 441.271 156.610 L 444.971 160 491.520 160 C 542.812 160, 541.266 160.183, 544.476 153.747 C 548.262 146.158, 544.870 137.476, 537.225 135.185 C 532.492 133.768, 451.294 133.659, 446.462 135.064 M 315.500 220.382 C 317.150 221.782, 319.061 222.944, 319.748 222.964 C 327.225 223.180, 368.384 262.090, 378.221 278.242 C 380.437 281.880, 383.217 283.076, 384.528 280.955 C 386.799 277.280, 358.358 246.487, 341.235 234.081 C 328.187 224.628, 307.577 213.657, 315.500 220.382 M 167.146 224.728 C 161.541 235.200, 155.898 297.859, 158.865 316.680 C 160.999 330.219, 160.813 330.130, 169.223 321.667 C 176.736 314.106, 183.929 308.830, 194.755 302.937 C 202.776 298.571, 202.286 297.613, 191.717 297 C 178.698 296.245, 177.998 292.814, 189.379 285.534 L 194.650 282.162 186.933 266.331 C 182.688 257.624, 178.923 249.375, 178.566 248 C 178.208 246.625, 181.005 251.575, 184.781 259 C 192.160 273.513, 196.583 281.006, 197.763 280.991 C 200.563 280.956, 220.553 272.959, 220.791 271.779 C 221.100 270.245, 194.661 242.806, 186.910 236.617 C 174.283 226.535, 168.152 222.847, 167.146 224.728 M 246.500 256.417 C 233.657 259.562, 220.729 270.896, 228.250 272.417 C 229.488 272.667, 233.200 273.110, 236.500 273.402 C 262.343 275.686, 290.043 286.917, 315.566 305.459 C 316.943 306.459, 337.854 297.329, 337.952 295.685 C 338.365 288.715, 283.334 258.692, 266.209 256.546 C 256.493 255.328, 251.091 255.292, 246.500 256.417 M 398.500 282.100 C 378.143 284.107, 319 305.139, 319 310.371 C 319 311.156, 320.575 314.139, 322.500 317 C 326.505 322.952, 326.778 324.513, 324.066 325.965 C 319.730 328.285, 301.319 325.659, 291 321.248 C 288.525 320.190, 283.696 318.780, 280.269 318.116 C 276.842 317.451, 271.442 315.753, 268.269 314.342 C 265.096 312.932, 260.700 311.179, 258.500 310.447 C 256.300 309.715, 250.675 307.715, 246 306.003 C 220.066 296.503, 217.227 296.480, 199.407 305.621 C 180.217 315.464, 170.710 323.037, 161.269 336 C 159.066 339.025, 154.456 344.166, 151.024 347.423 L 144.785 353.347 145.222 358.923 C 145.462 361.991, 146.881 367.650, 148.375 371.500 C 157.862 395.952, 177.649 412.607, 203 417.480 C 213.748 419.547, 230.186 425.882, 233 429.043 C 235.799 432.187, 249.848 434.101, 254.316 431.947 C 258.458 429.950, 251.383 435.328, 241.035 442.041 C 234.799 446.087, 231.065 449.154, 231.040 450.250 C 230.976 453.053, 232.452 452.416, 243.783 444.750 C 249.678 440.762, 254.950 437.329, 255.500 437.120 C 256.050 436.910, 257.288 436.053, 258.250 435.215 C 260.406 433.336, 260.423 433.742, 258.395 438.598 C 256.232 443.774, 256.815 461.018, 259.311 465.720 C 261.862 470.526, 264.156 471.309, 274.426 470.880 C 291.680 470.158, 310.852 470.767, 318.182 472.269 C 333.415 475.391, 336.490 473.529, 332.828 463.400 C 331.799 460.556, 331.983 459.429, 334.328 454.204 C 339.570 442.524, 338.708 441.139, 324 437.606 C 289.549 429.332, 270.398 426.870, 262.183 429.659 C 257.118 431.379, 255.888 430.959, 259.348 428.692 C 264.207 425.508, 278.640 426.484, 302.574 431.614 C 311.414 433.508, 319.964 435.006, 321.574 434.941 C 323.183 434.876, 326.750 435.129, 329.500 435.503 C 334.920 436.241, 349.586 431.807, 353.635 428.207 C 354.691 427.268, 357.234 425.639, 359.286 424.588 C 364.073 422.135, 375 412.271, 375 410.403 C 375 409.616, 374.438 408.065, 373.750 406.956 C 372.493 404.927, 372.972 404.166, 376.500 402.584 C 377.050 402.338, 376.370 401.093, 374.989 399.818 C 373.608 398.543, 371.211 395.837, 369.662 393.805 L 366.846 390.109 369.902 387.305 C 381.580 376.589, 397.564 336.361, 404.883 299.263 C 408.793 279.447, 409.380 281.027, 398.500 282.100 M 353.340 318.832 C 345.660 324.913, 329.999 341.189, 330.714 342.346 C 331.081 342.940, 334.343 340.155, 338.206 335.949 C 341.969 331.852, 348.299 325.480, 352.274 321.789 C 360.282 314.351, 360.795 312.929, 353.340 318.832 M 176.501 333.998 C 175.774 335.175, 175.700 335.134, 179.334 335.561 C 187.325 336.498, 195.183 340.135, 194.562 342.609 C 194.223 343.959, 194.406 345, 194.981 345 C 196.778 345, 196.068 347.749, 194.142 348.253 C 192.273 348.742, 190.772 353.244, 191.686 355.623 C 192.447 357.607, 194.758 356.111, 195.465 353.178 C 198.265 341.565, 198.150 341.671, 203.785 345.500 C 207.761 348.202, 210.239 348.750, 209.434 346.750 C 207.112 340.979, 178.931 330.067, 176.501 333.998 M 270.761 358.572 C 270.416 358.918, 268.595 359.200, 266.714 359.200 C 264.833 359.200, 262.666 359.598, 261.897 360.085 C 260.992 360.658, 262.525 360.975, 266.250 360.985 C 270.688 360.997, 272 361.342, 272 362.500 C 272 363.325, 272.450 364, 273 364 C 273.550 364, 274 364.675, 274 365.500 C 274 366.325, 273.381 367, 272.625 367 C 271.188 367, 270 371.164, 270 376.198 C 270 382.830, 273.397 379.010, 275.072 370.494 C 277.065 360.362, 284.773 359.486, 304.385 367.165 C 310.006 369.365, 312.626 369.111, 308.975 366.719 C 303.892 363.389, 272.613 356.720, 270.761 358.572 M 60.067 382.159 C 57.589 384.819, 55.568 390.925, 53.546 401.860 C 51.556 412.625, 51.514 412.195, 54.876 415.713 C 58.716 419.731, 61.666 428.005, 62.172 436.177 C 62.519 441.788, 62.383 442.564, 61.314 441.038 C 60.571 439.978, 60.123 436.789, 60.234 433.362 C 60.837 414.818, 41.563 408.290, 31.136 423.507 C 28.458 427.415, 26 435.024, 25.999 439.409 C 25.999 441.109, 25.014 444.975, 23.809 448 C 22.077 452.349, 21.607 455.644, 21.560 463.749 C 21.508 472.565, 21.270 473.999, 19.857 473.999 C 15.566 474.001, 14.958 485.785, 18.848 493.573 C 20.516 496.913, 23.216 502.988, 24.848 507.073 C 32.106 525.235, 34.038 527.937, 43.352 532.941 C 60.466 542.138, 85.217 541.265, 94.371 531.144 C 97.271 527.937, 95.925 526.657, 86.364 523.529 C 81.489 521.934, 76.150 520.089, 74.500 519.429 C 72.850 518.770, 68.800 517.213, 65.500 515.970 C 62.200 514.727, 57.612 512.875, 55.305 511.855 C 52.998 510.835, 50.869 510, 50.574 510 C 42.223 510, 27.201 497.440, 28.729 491.734 C 29.586 488.530, 29.575 486.984, 28.681 485.376 C 28.031 484.208, 26.643 481.733, 25.595 479.876 C 24.376 477.714, 24.196 476.887, 25.095 477.575 C 36.026 485.941, 53.814 479.263, 55.910 466.007 C 56.346 463.245, 57.421 460.193, 58.297 459.224 C 59.173 458.256, 60.837 455.447, 61.994 452.982 C 64.023 448.661, 64.074 448.626, 63.429 452 C 62.689 455.868, 60.530 460.554, 59.074 461.454 C 58.557 461.773, 57.600 464.609, 56.947 467.755 C 55.064 476.825, 42.566 485.940, 36.853 482.409 C 34.230 480.788, 30.375 488.375, 30.771 494.380 C 31.096 499.304, 38.649 503.573, 65.500 514.006 C 86.750 522.263, 101.564 526.858, 122 531.529 C 128.325 532.975, 138.900 535.677, 145.500 537.534 C 152.100 539.390, 162.225 542.075, 168 543.500 C 173.775 544.925, 181.089 546.971, 184.254 548.046 C 195.849 551.984, 202.175 544.108, 194.406 535.406 C 189.739 530.177, 188.152 525.519, 189.226 520.201 C 190.308 514.840, 190.337 513.034, 189.480 504 C 188.991 498.849, 189.293 496.275, 190.932 491.593 C 192.069 488.345, 193.004 484.520, 193.010 483.093 C 193.054 471.283, 206.790 461.632, 220.591 463.714 C 224.278 464.270, 224.652 463.554, 228.526 448.500 C 233.840 427.855, 234.566 428.618, 200 418.479 C 193.125 416.463, 184.125 413.747, 180 412.444 C 175.875 411.141, 163.725 407.847, 153 405.123 C 130.530 399.418, 121.218 396.743, 104.500 391.192 C 69.630 379.614, 63.583 378.384, 60.067 382.159 M 234.711 434.691 C 232.574 438.291, 232.884 444.133, 235.147 442.933 C 243.020 438.757, 245.463 436.715, 243.465 435.981 C 239.555 434.545, 235.180 433.900, 234.711 434.691 M 214.512 444.095 C 208.798 447.718, 208.941 447.659, 189.500 454.483 C 167.696 462.136, 153.963 467.296, 154.355 467.688 C 154.699 468.033, 184.691 457.667, 201.541 451.380 C 209.792 448.302, 222.964 441.087, 220.446 441.026 C 219.866 441.012, 217.196 442.393, 214.512 444.095 M 118.620 444.193 C 117.707 444.704, 116.132 444.859, 115.121 444.538 C 114.070 444.205, 112.741 444.607, 112.019 445.477 C 111.324 446.315, 109.740 447, 108.500 447 C 107.260 447, 105.685 447.675, 105 448.500 C 104.315 449.325, 103.124 450, 102.353 450 C 101.582 450, 100.523 451.125, 100 452.500 C 98.917 455.348, 97.240 455.711, 95.591 453.455 C 94.681 452.211, 94.494 452.605, 94.629 455.485 C 94.722 457.451, 94.182 459.675, 93.431 460.426 C 92.679 461.178, 92.072 463.077, 92.081 464.646 C 92.091 466.216, 91.876 470.076, 91.605 473.225 C 91.333 476.374, 91.536 479.213, 92.056 479.534 C 92.575 479.855, 93 481.161, 93 482.437 C 93 483.712, 93.675 485.315, 94.500 486 C 95.325 486.685, 96 488.059, 96 489.055 C 96 490.051, 96.926 491.159, 98.057 491.518 C 99.189 491.877, 100.545 493.303, 101.071 494.687 C 101.738 496.441, 102.520 497.014, 103.654 496.579 C 104.679 496.186, 105.826 496.735, 106.757 498.064 C 107.690 499.396, 108.934 499.989, 110.135 499.675 C 111.180 499.402, 112.590 499.720, 113.268 500.382 C 114.641 501.723, 122.799 501.933, 124.759 500.677 C 125.451 500.234, 126.850 500.135, 127.868 500.458 C 128.931 500.795, 130.255 500.398, 130.981 499.523 C 131.676 498.685, 133.104 498, 134.154 498 C 135.204 498, 136.328 497.308, 136.653 496.463 C 136.977 495.618, 138.574 494.237, 140.202 493.395 C 142.073 492.428, 142.959 491.334, 142.609 490.423 C 142.300 489.617, 142.925 488.439, 144.028 487.750 C 145.113 487.073, 146 485.557, 146 484.382 C 146 483.207, 146.685 481.676, 147.523 480.981 C 148.380 480.270, 148.794 478.927, 148.471 477.909 C 147.875 476.031, 150.448 470.038, 152.390 468.781 C 153 468.386, 152.150 468.161, 150.500 468.281 C 147.974 468.465, 147.545 468.168, 147.787 466.403 C 147.945 465.250, 147.382 463.732, 146.537 463.031 C 145.692 462.329, 145 460.965, 145 460 C 145 459.035, 144.325 457.685, 143.500 457 C 142.675 456.315, 142 455.112, 142 454.326 C 142 453.539, 140.650 452.425, 139 451.850 C 137.350 451.275, 136 450.182, 136 449.421 C 136 448.661, 134.762 447.742, 133.250 447.381 C 131.738 447.020, 129.943 446.286, 129.263 445.750 C 128.582 445.215, 127.401 445.016, 126.637 445.309 C 125.874 445.602, 124.131 445.262, 122.764 444.553 C 121.129 443.704, 119.713 443.581, 118.620 444.193 M 113.479 455.315 C 102.894 461.523, 98.803 470.497, 102.511 479.371 C 104.002 482.941, 108.371 488, 109.962 488 C 110.441 488, 110.985 488.454, 111.170 489.010 C 111.494 489.983, 113.950 490.783, 118.811 491.498 C 125.050 492.415, 137 484.898, 137 480.056 C 137 479.109, 137.303 478.030, 137.674 477.659 C 146.431 468.902, 124.635 448.773, 113.479 455.315 M 206.383 467.530 C 200.138 470.269, 195.255 477.564, 195.076 484.421 C 195.034 486.028, 194.326 488.087, 193.502 488.998 C 190.809 491.974, 189.928 499.862, 191.604 506 C 192.913 510.798, 192.924 512.201, 191.691 516.990 C 189.588 525.156, 191.984 531.083, 199.983 537.500 C 203.283 540.147, 203.504 540.585, 201.862 541.218 C 198.009 542.703, 199.463 547.703, 204.715 551.035 C 213.830 556.815, 220.842 556.519, 226.254 550.127 C 227.489 548.668, 230.415 545.939, 232.757 544.064 C 263.113 519.749, 240.033 452.772, 206.383 467.530 M 300.736 472.812 C 298.466 473.250, 298.420 473.001, 302.680 483.462 C 307.644 495.654, 306.787 495.056, 315.231 492.213 C 321.312 490.165, 323.764 489.851, 330.234 490.287 C 339.149 490.888, 339.102 491.148, 331.840 481.296 C 328.984 477.421, 327.174 475.937, 324.752 475.486 C 317.980 474.226, 302.402 472.491, 300.736 472.812 M 154.378 555.765 C 148.646 559.519, 147.080 581.500, 152.545 581.500 C 154.241 581.500, 154.522 580.733, 154.664 575.720 C 154.766 572.140, 155.600 568.461, 156.856 566.051 C 159.697 560.602, 157.966 553.416, 154.378 555.765" stroke="none" fill="#063934" fill-rule="evenodd"/></svg>